<?xml version="1.0" standalone="no"?>
<!DOCTYPE svg PUBLIC "-//W3C//DTD SVG 20010904//EN"
 "http://www.w3.org/TR/2001/REC-SVG-20010904/DTD/svg10.dtd">
<svg version="1.0" xmlns="http://www.w3.org/2000/svg"
 width="35.000000pt" height="35.000000pt" viewBox="0 0 35.000000 35.000000"
 preserveAspectRatio="xMidYMid meet">

<g transform="translate(0.000000,35.000000) scale(0.100000,-0.100000)"
fill="#000000" stroke="none">
<path d="M123 305 c-35 -15 -63 -60 -63 -100 0 -37 26 -83 73 -132 l41 -43 39
38 c95 92 101 201 12 238 -42 17 -61 17 -102 -1z m112 -40 c37 -36 34 -87 -7
-141 -50 -65 -56 -65 -113 10 -52 68 -18 156 60 156 25 0 44 -8 60 -25z"/>
<path d="M154 215 c-4 -9 -2 -21 4 -27 15 -15 44 -1 40 19 -4 23 -36 29 -44 8z"/>
</g>
</svg>
